# MagicaVoxel @ Ephtracy

# material
mtllib mod_sellShop.mtl
usemtl palette

# normals
vn -1 0 0
vn 1 0 0
vn 0 0 1
vn 0 0 -1
vn 0 -1 0
vn 0 1 0

# texcoords
vt 0.126953 0.5
vt 0.130859 0.5
vt 0.134766 0.5
vt 0.138672 0.5
vt 0.142578 0.5

# verts
v -8 0 7
v -8 0 5
v -8 0 2
v -8 0 -2
v -8 0 -5
v -8 0 -7
v -8 1 6
v -8 1 5
v -8 1 2
v -8 1 1
v -8 1 -1
v -8 1 -2
v -8 1 -5
v -8 1 -6
v -8 2 7
v -8 2 6
v -8 2 1
v -8 2 -1
v -8 2 -6
v -8 2 -7
v -7 0 8
v -7 0 7
v -7 0 -7
v -7 0 -8
v -7 2 8
v -7 2 7
v -7 2 -7
v -7 2 -8
v -4 1 1
v -4 1 -1
v -4 2 1
v -4 2 -1
v -3 1 3
v -3 1 1
v -3 1 -1
v -3 1 -3
v -3 2 3
v -3 2 1
v -3 2 -1
v -3 2 -3
v -1 1 8
v -1 1 7
v -1 1 4
v -1 1 3
v -1 1 -3
v -1 1 -4
v -1 1 -7
v -1 1 -8
v -1 2 8
v -1 2 7
v -1 2 4
v -1 2 3
v -1 2 -3
v -1 2 -4
v -1 2 -7
v -1 2 -8
v 6 1 8
v 6 1 7
v 6 1 6
v 6 1 -6
v 6 1 -7
v 6 1 -8
v 6 2 8
v 6 2 6
v 6 2 -6
v 6 2 -8
v 7 1 1
v 7 1 -1
v 7 2 1
v 7 2 -1
v -7 1 1
v -7 1 -1
v -7 2 1
v -7 2 -1
v -6 1 8
v -6 1 7
v -6 1 6
v -6 1 -6
v -6 1 -7
v -6 1 -8
v -6 2 8
v -6 2 6
v -6 2 -6
v -6 2 -8
v 1 1 8
v 1 1 7
v 1 1 4
v 1 1 3
v 1 1 -3
v 1 1 -4
v 1 1 -7
v 1 1 -8
v 1 2 8
v 1 2 7
v 1 2 4
v 1 2 3
v 1 2 -3
v 1 2 -4
v 1 2 -7
v 1 2 -8
v 3 1 3
v 3 1 1
v 3 1 -1
v 3 1 -3
v 3 2 3
v 3 2 1
v 3 2 -1
v 3 2 -3
v 4 1 1
v 4 1 -1
v 4 2 1
v 4 2 -1
v 7 0 8
v 7 0 7
v 7 0 -7
v 7 0 -8
v 7 2 8
v 7 2 7
v 7 2 -7
v 7 2 -8
v 8 0 7
v 8 0 5
v 8 0 2
v 8 0 -2
v 8 0 -5
v 8 0 -7
v 8 1 6
v 8 1 5
v 8 1 2
v 8 1 1
v 8 1 -1
v 8 1 -2
v 8 1 -5
v 8 1 -6
v 8 2 7
v 8 2 6
v 8 2 1
v 8 2 -1
v 8 2 -6
v 8 2 -7
v -7 0 8
v -7 2 8
v -6 1 8
v -6 2 8
v -5 0 8
v -5 1 8
v -2 0 8
v -2 1 8
v -1 1 8
v -1 2 8
v 1 1 8
v 1 2 8
v 2 0 8
v 2 1 8
v 5 0 8
v 5 1 8
v 6 1 8
v 6 2 8
v 7 0 8
v 7 2 8
v -8 0 7
v -8 2 7
v -7 0 7
v -7 2 7
v 7 0 7
v 7 2 7
v 8 0 7
v 8 2 7
v -1 1 4
v -1 2 4
v 1 1 4
v 1 2 4
v -3 1 3
v -3 2 3
v -1 1 3
v -1 2 3
v 1 1 3
v 1 2 3
v 3 1 3
v 3 2 3
v -8 1 1
v -8 2 1
v -7 1 1
v -7 2 1
v -4 1 1
v -4 2 1
v -3 1 1
v -3 2 1
v 3 1 1
v 3 2 1
v 4 1 1
v 4 2 1
v 7 1 1
v 7 2 1
v 8 1 1
v 8 2 1
v -8 1 -6
v -8 2 -6
v -7 1 -6
v -6 1 -6
v -6 2 -6
v 6 1 -6
v 6 2 -6
v 7 1 -6
v 8 1 -6
v 8 2 -6
v -1 1 -7
v -1 2 -7
v 1 1 -7
v 1 2 -7
v -1 1 7
v -1 2 7
v 1 1 7
v 1 2 7
v -8 1 6
v -8 2 6
v -7 1 6
v -6 1 6
v -6 2 6
v 6 1 6
v 6 2 6
v 7 1 6
v 8 1 6
v 8 2 6
v -8 1 -1
v -8 2 -1
v -7 1 -1
v -7 2 -1
v -4 1 -1
v -4 2 -1
v -3 1 -1
v -3 2 -1
v 3 1 -1
v 3 2 -1
v 4 1 -1
v 4 2 -1
v 7 1 -1
v 7 2 -1
v 8 1 -1
v 8 2 -1
v -3 1 -3
v -3 2 -3
v -1 1 -3
v -1 2 -3
v 1 1 -3
v 1 2 -3
v 3 1 -3
v 3 2 -3
v -1 1 -4
v -1 2 -4
v 1 1 -4
v 1 2 -4
v -8 0 -7
v -8 2 -7
v -7 0 -7
v -7 2 -7
v 7 0 -7
v 7 2 -7
v 8 0 -7
v 8 2 -7
v -7 0 -8
v -7 2 -8
v -6 1 -8
v -6 2 -8
v -5 0 -8
v -5 1 -8
v -2 0 -8
v -2 1 -8
v -1 1 -8
v -1 2 -8
v 1 1 -8
v 1 2 -8
v 2 0 -8
v 2 1 -8
v 5 0 -8
v 5 1 -8
v 6 1 -8
v 6 2 -8
v 7 0 -8
v 7 2 -8
v -7 0 8
v -5 0 8
v -2 0 8
v 2 0 8
v 5 0 8
v 7 0 8
v -8 0 7
v -7 0 7
v -6 0 7
v -5 0 7
v -2 0 7
v 2 0 7
v 5 0 7
v 6 0 7
v 7 0 7
v 8 0 7
v -7 0 6
v -6 0 6
v 6 0 6
v 7 0 6
v -8 0 5
v -7 0 5
v 7 0 5
v 8 0 5
v -8 0 2
v -7 0 2
v 7 0 2
v 8 0 2
v -8 0 -2
v -7 0 -2
v 7 0 -2
v 8 0 -2
v -8 0 -5
v -7 0 -5
v 7 0 -5
v 8 0 -5
v -7 0 -6
v -6 0 -6
v 6 0 -6
v 7 0 -6
v -8 0 -7
v -7 0 -7
v -6 0 -7
v -5 0 -7
v -2 0 -7
v 2 0 -7
v 5 0 -7
v 6 0 -7
v 7 0 -7
v 8 0 -7
v -7 0 -8
v -5 0 -8
v -2 0 -8
v 2 0 -8
v 5 0 -8
v 7 0 -8
v -6 1 8
v -5 1 8
v -2 1 8
v -1 1 8
v 1 1 8
v 2 1 8
v 5 1 8
v 6 1 8
v -6 1 7
v -5 1 7
v -2 1 7
v -1 1 7
v 1 1 7
v 2 1 7
v 5 1 7
v 6 1 7
v -8 1 6
v -7 1 6
v -6 1 6
v 6 1 6
v 7 1 6
v 8 1 6
v -8 1 5
v -7 1 5
v 7 1 5
v 8 1 5
v -1 1 4
v 1 1 4
v -3 1 3
v -1 1 3
v 1 1 3
v 3 1 3
v -8 1 2
v -7 1 2
v 7 1 2
v 8 1 2
v -8 1 1
v -7 1 1
v -4 1 1
v -3 1 1
v 3 1 1
v 4 1 1
v 7 1 1
v 8 1 1
v -8 1 -1
v -7 1 -1
v -4 1 -1
v -3 1 -1
v 3 1 -1
v 4 1 -1
v 7 1 -1
v 8 1 -1
v -8 1 -2
v -7 1 -2
v 7 1 -2
v 8 1 -2
v -3 1 -3
v -1 1 -3
v 1 1 -3
v 3 1 -3
v -1 1 -4
v 1 1 -4
v -8 1 -5
v -7 1 -5
v 7 1 -5
v 8 1 -5
v -8 1 -6
v -7 1 -6
v -6 1 -6
v 6 1 -6
v 7 1 -6
v 8 1 -6
v -6 1 -7
v -5 1 -7
v -2 1 -7
v -1 1 -7
v 1 1 -7
v 2 1 -7
v 5 1 -7
v 6 1 -7
v -6 1 -8
v -5 1 -8
v -2 1 -8
v -1 1 -8
v 1 1 -8
v 2 1 -8
v 5 1 -8
v 6 1 -8
v -7 2 8
v -6 2 8
v -1 2 8
v 1 2 8
v 6 2 8
v 7 2 8
v -8 2 7
v -7 2 7
v -1 2 7
v 1 2 7
v 7 2 7
v 8 2 7
v -8 2 6
v -6 2 6
v 6 2 6
v 8 2 6
v -1 2 4
v 1 2 4
v -3 2 3
v -1 2 3
v 1 2 3
v 3 2 3
v -2 2 2
v -1 2 2
v 1 2 2
v 2 2 2
v -8 2 1
v -7 2 1
v -4 2 1
v -3 2 1
v -2 2 1
v -1 2 1
v 1 2 1
v 2 2 1
v 3 2 1
v 4 2 1
v 7 2 1
v 8 2 1
v -8 2 -1
v -7 2 -1
v -4 2 -1
v -3 2 -1
v -2 2 -1
v -1 2 -1
v 1 2 -1
v 2 2 -1
v 3 2 -1
v 4 2 -1
v 7 2 -1
v 8 2 -1
v -2 2 -2
v -1 2 -2
v 1 2 -2
v 2 2 -2
v -3 2 -3
v -1 2 -3
v 1 2 -3
v 3 2 -3
v -1 2 -4
v 1 2 -4
v -8 2 -6
v -6 2 -6
v 6 2 -6
v 8 2 -6
v -8 2 -7
v -7 2 -7
v -1 2 -7
v 1 2 -7
v 7 2 -7
v 8 2 -7
v -7 2 -8
v -6 2 -8
v -1 2 -8
v 1 2 -8
v 6 2 -8
v 7 2 -8

# faces
f 7/5/1 2/5/1 1/5/1
f 8/4/1 3/4/1 2/4/1
f 8/5/1 2/5/1 7/5/1
f 9/5/1 4/5/1 3/5/1
f 9/4/1 3/4/1 8/4/1
f 10/5/1 4/5/1 9/5/1
f 11/5/1 4/5/1 10/5/1
f 12/4/1 5/4/1 4/4/1
f 12/5/1 4/5/1 11/5/1
f 13/5/1 6/5/1 5/5/1
f 13/4/1 5/4/1 12/4/1
f 14/5/1 6/5/1 13/5/1
f 15/5/1 7/5/1 1/5/1
f 16/5/1 7/5/1 15/5/1
f 17/5/1 11/5/1 10/5/1
f 18/5/1 11/5/1 17/5/1
f 19/5/1 6/5/1 14/5/1
f 20/5/1 6/5/1 19/5/1
f 25/5/1 22/5/1 21/5/1
f 26/5/1 22/5/1 25/5/1
f 27/5/1 24/5/1 23/5/1
f 28/5/1 24/5/1 27/5/1
f 31/1/1 30/1/1 29/1/1
f 32/1/1 30/1/1 31/1/1
f 37/1/1 34/1/1 33/1/1
f 38/1/1 34/1/1 37/1/1
f 39/1/1 36/1/1 35/1/1
f 40/1/1 36/1/1 39/1/1
f 49/5/1 42/5/1 41/5/1
f 50/5/1 42/5/1 49/5/1
f 51/1/1 44/1/1 43/1/1
f 52/1/1 44/1/1 51/1/1
f 53/1/1 46/1/1 45/1/1
f 54/1/1 46/1/1 53/1/1
f 55/5/1 48/5/1 47/5/1
f 56/5/1 48/5/1 55/5/1
f 63/5/1 58/5/1 57/5/1
f 63/5/1 59/5/1 58/5/1
f 64/5/1 59/5/1 63/5/1
f 65/5/1 62/5/1 61/5/1
f 65/5/1 61/5/1 60/5/1
f 66/5/1 62/5/1 65/5/1
f 69/5/1 68/5/1 67/5/1
f 70/5/1 68/5/1 69/5/1
f 71/5/2 72/5/2 73/5/2
f 73/5/2 72/5/2 74/5/2
f 75/5/2 76/5/2 81/5/2
f 76/5/2 77/5/2 81/5/2
f 81/5/2 77/5/2 82/5/2
f 79/5/2 80/5/2 83/5/2
f 78/5/2 79/5/2 83/5/2
f 83/5/2 80/5/2 84/5/2
f 85/5/2 86/5/2 93/5/2
f 93/5/2 86/5/2 94/5/2
f 87/1/2 88/1/2 95/1/2
f 95/1/2 88/1/2 96/1/2
f 89/1/2 90/1/2 97/1/2
f 97/1/2 90/1/2 98/1/2
f 91/5/2 92/5/2 99/5/2
f 99/5/2 92/5/2 100/5/2
f 101/1/2 102/1/2 105/1/2
f 105/1/2 102/1/2 106/1/2
f 103/1/2 104/1/2 107/1/2
f 107/1/2 104/1/2 108/1/2
f 109/1/2 110/1/2 111/1/2
f 111/1/2 110/1/2 112/1/2
f 113/5/2 114/5/2 117/5/2
f 117/5/2 114/5/2 118/5/2
f 115/5/2 116/5/2 119/5/2
f 119/5/2 116/5/2 120/5/2
f 121/5/2 122/5/2 127/5/2
f 122/4/2 123/4/2 128/4/2
f 127/5/2 122/5/2 128/5/2
f 123/5/2 124/5/2 129/5/2
f 128/4/2 123/4/2 129/4/2
f 129/5/2 124/5/2 130/5/2
f 130/5/2 124/5/2 131/5/2
f 124/4/2 125/4/2 132/4/2
f 131/5/2 124/5/2 132/5/2
f 125/5/2 126/5/2 133/5/2
f 132/4/2 125/4/2 133/4/2
f 133/5/2 126/5/2 134/5/2
f 121/5/2 127/5/2 135/5/2
f 135/5/2 127/5/2 136/5/2
f 130/5/2 131/5/2 137/5/2
f 137/5/2 131/5/2 138/5/2
f 134/5/2 126/5/2 139/5/2
f 139/5/2 126/5/2 140/5/2
f 143/5/3 142/5/3 141/5/3
f 144/5/3 142/5/3 143/5/3
f 145/5/3 143/5/3 141/5/3
f 146/5/3 143/5/3 145/5/3
f 147/4/3 146/4/3 145/4/3
f 148/4/3 146/4/3 147/4/3
f 149/5/3 148/5/3 147/5/3
f 151/5/3 149/5/3 147/5/3
f 151/5/3 150/5/3 149/5/3
f 152/5/3 150/5/3 151/5/3
f 153/5/3 151/5/3 147/5/3
f 154/5/3 151/5/3 153/5/3
f 155/4/3 154/4/3 153/4/3
f 156/4/3 154/4/3 155/4/3
f 157/5/3 156/5/3 155/5/3
f 159/5/3 157/5/3 155/5/3
f 159/5/3 158/5/3 157/5/3
f 160/5/3 158/5/3 159/5/3
f 163/5/3 162/5/3 161/5/3
f 164/5/3 162/5/3 163/5/3
f 167/5/3 166/5/3 165/5/3
f 168/5/3 166/5/3 167/5/3
f 171/1/3 170/1/3 169/1/3
f 172/1/3 170/1/3 171/1/3
f 175/1/3 174/1/3 173/1/3
f 176/1/3 174/1/3 175/1/3
f 179/1/3 178/1/3 177/1/3
f 180/1/3 178/1/3 179/1/3
f 183/5/3 182/5/3 181/5/3
f 184/5/3 182/5/3 183/5/3
f 187/1/3 186/1/3 185/1/3
f 188/1/3 186/1/3 187/1/3
f 191/1/3 190/1/3 189/1/3
f 192/1/3 190/1/3 191/1/3
f 195/5/3 194/5/3 193/5/3
f 196/5/3 194/5/3 195/5/3
f 199/5/3 198/5/3 197/5/3
f 200/5/3 198/5/3 199/5/3
f 201/5/3 198/5/3 200/5/3
f 204/5/3 203/5/3 202/5/3
f 205/5/3 203/5/3 204/5/3
f 206/5/3 203/5/3 205/5/3
f 209/5/3 208/5/3 207/5/3
f 210/5/3 208/5/3 209/5/3
f 211/5/4 212/5/4 213/5/4
f 213/5/4 212/5/4 214/5/4
f 215/5/4 216/5/4 217/5/4
f 217/5/4 216/5/4 218/5/4
f 218/5/4 216/5/4 219/5/4
f 220/5/4 221/5/4 222/5/4
f 222/5/4 221/5/4 223/5/4
f 223/5/4 221/5/4 224/5/4
f 225/5/4 226/5/4 227/5/4
f 227/5/4 226/5/4 228/5/4
f 229/1/4 230/1/4 231/1/4
f 231/1/4 230/1/4 232/1/4
f 233/1/4 234/1/4 235/1/4
f 235/1/4 234/1/4 236/1/4
f 237/5/4 238/5/4 239/5/4
f 239/5/4 238/5/4 240/5/4
f 241/1/4 242/1/4 243/1/4
f 243/1/4 242/1/4 244/1/4
f 245/1/4 246/1/4 247/1/4
f 247/1/4 246/1/4 248/1/4
f 249/1/4 250/1/4 251/1/4
f 251/1/4 250/1/4 252/1/4
f 253/5/4 254/5/4 255/5/4
f 255/5/4 254/5/4 256/5/4
f 257/5/4 258/5/4 259/5/4
f 259/5/4 258/5/4 260/5/4
f 261/5/4 262/5/4 263/5/4
f 263/5/4 262/5/4 264/5/4
f 261/5/4 263/5/4 265/5/4
f 265/5/4 263/5/4 266/5/4
f 265/4/4 266/4/4 267/4/4
f 267/4/4 266/4/4 268/4/4
f 267/5/4 268/5/4 269/5/4
f 267/5/4 269/5/4 271/5/4
f 269/5/4 270/5/4 271/5/4
f 271/5/4 270/5/4 272/5/4
f 267/5/4 271/5/4 273/5/4
f 273/5/4 271/5/4 274/5/4
f 273/4/4 274/4/4 275/4/4
f 275/4/4 274/4/4 276/4/4
f 275/5/4 276/5/4 277/5/4
f 275/5/4 277/5/4 279/5/4
f 277/5/4 278/5/4 279/5/4
f 279/5/4 278/5/4 280/5/4
f 288/5/5 282/5/5 281/5/5
f 289/5/5 282/5/5 288/5/5
f 290/4/5 283/4/5 282/4/5
f 290/5/5 282/5/5 289/5/5
f 291/5/5 284/5/5 283/5/5
f 291/4/5 283/4/5 290/4/5
f 292/4/5 285/4/5 284/4/5
f 292/5/5 284/5/5 291/5/5
f 293/5/5 286/5/5 285/5/5
f 293/4/5 285/4/5 292/4/5
f 294/5/5 286/5/5 293/5/5
f 295/5/5 286/5/5 294/5/5
f 297/4/5 289/4/5 288/4/5
f 297/5/5 288/5/5 287/5/5
f 298/3/5 292/3/5 291/3/5
f 298/4/5 289/4/5 297/4/5
f 298/3/5 290/3/5 289/3/5
f 298/3/5 294/3/5 293/3/5
f 298/3/5 293/3/5 292/3/5
f 298/3/5 291/3/5 290/3/5
f 299/4/5 295/4/5 294/4/5
f 299/3/5 294/3/5 298/3/5
f 300/5/5 296/5/5 295/5/5
f 300/4/5 295/4/5 299/4/5
f 301/5/5 297/5/5 287/5/5
f 302/3/5 299/3/5 298/3/5
f 302/5/5 297/5/5 301/5/5
f 302/3/5 298/3/5 297/3/5
f 302/3/5 300/3/5 299/3/5
f 303/5/5 296/5/5 300/5/5
f 303/3/5 300/3/5 302/3/5
f 304/5/5 296/5/5 303/5/5
f 305/4/5 302/4/5 301/4/5
f 306/3/5 303/3/5 302/3/5
f 306/4/5 302/4/5 305/4/5
f 307/4/5 304/4/5 303/4/5
f 307/3/5 303/3/5 306/3/5
f 308/4/5 304/4/5 307/4/5
f 309/5/5 306/5/5 305/5/5
f 310/3/5 307/3/5 306/3/5
f 310/5/5 306/5/5 309/5/5
f 311/5/5 308/5/5 307/5/5
f 311/3/5 307/3/5 310/3/5
f 312/5/5 308/5/5 311/5/5
f 313/4/5 310/4/5 309/4/5
f 314/3/5 311/3/5 310/3/5
f 314/4/5 310/4/5 313/4/5
f 315/4/5 312/4/5 311/4/5
f 315/3/5 311/3/5 314/3/5
f 316/4/5 312/4/5 315/4/5
f 317/5/5 314/5/5 313/5/5
f 317/3/5 315/3/5 314/3/5
f 318/3/5 315/3/5 317/3/5
f 319/3/5 315/3/5 318/3/5
f 320/5/5 316/5/5 315/5/5
f 320/3/5 315/3/5 319/3/5
f 321/5/5 317/5/5 313/5/5
f 322/4/5 318/4/5 317/4/5
f 322/5/5 317/5/5 321/5/5
f 323/3/5 319/3/5 318/3/5
f 323/4/5 318/4/5 322/4/5
f 324/3/5 319/3/5 323/3/5
f 325/3/5 319/3/5 324/3/5
f 326/3/5 319/3/5 325/3/5
f 327/3/5 319/3/5 326/3/5
f 328/4/5 320/4/5 319/4/5
f 328/3/5 319/3/5 327/3/5
f 329/5/5 316/5/5 320/5/5
f 329/4/5 320/4/5 328/4/5
f 330/5/5 316/5/5 329/5/5
f 331/5/5 323/5/5 322/5/5
f 331/5/5 324/5/5 323/5/5
f 332/4/5 325/4/5 324/4/5
f 332/5/5 324/5/5 331/5/5
f 333/5/5 326/5/5 325/5/5
f 333/4/5 325/4/5 332/4/5
f 334/4/5 327/4/5 326/4/5
f 334/5/5 326/5/5 333/5/5
f 335/5/5 328/5/5 327/5/5
f 335/4/5 327/4/5 334/4/5
f 335/5/5 329/5/5 328/5/5
f 336/5/5 329/5/5 335/5/5
f 337/5/6 338/5/6 345/5/6
f 338/4/6 339/4/6 346/4/6
f 345/5/6 338/5/6 346/5/6
f 339/5/6 340/5/6 347/5/6
f 346/4/6 339/4/6 347/4/6
f 347/5/6 340/5/6 348/5/6
f 341/5/6 342/5/6 349/5/6
f 342/4/6 343/4/6 350/4/6
f 349/5/6 342/5/6 350/5/6
f 343/5/6 344/5/6 351/5/6
f 350/4/6 343/4/6 351/4/6
f 351/5/6 344/5/6 352/5/6
f 349/3/6 350/3/6 355/3/6
f 345/3/6 346/3/6 355/3/6
f 347/3/6 348/3/6 355/3/6
f 351/3/6 352/3/6 355/3/6
f 350/3/6 351/3/6 355/3/6
f 348/3/6 349/3/6 355/3/6
f 346/3/6 347/3/6 355/3/6
f 355/3/6 352/3/6 356/3/6
f 353/5/6 354/5/6 359/5/6
f 355/3/6 356/3/6 360/3/6
f 359/5/6 354/5/6 360/5/6
f 354/3/6 355/3/6 360/3/6
f 356/3/6 357/3/6 360/3/6
f 357/5/6 358/5/6 361/5/6
f 360/3/6 357/3/6 361/3/6
f 361/5/6 358/5/6 362/5/6
f 360/3/6 361/3/6 363/3/6
f 363/3/6 361/3/6 364/3/6
f 360/3/6 363/3/6 365/3/6
f 365/3/6 363/3/6 366/3/6
f 364/3/6 361/3/6 367/3/6
f 367/3/6 361/3/6 368/3/6
f 359/4/6 360/4/6 369/4/6
f 360/3/6 365/3/6 370/3/6
f 369/4/6 360/4/6 370/4/6
f 368/3/6 361/3/6 371/3/6
f 361/4/6 362/4/6 371/4/6
f 371/4/6 362/4/6 372/4/6
f 369/5/6 370/5/6 373/5/6
f 370/3/6 365/3/6 374/3/6
f 373/5/6 370/5/6 374/5/6
f 374/3/6 365/3/6 375/3/6
f 375/3/6 365/3/6 376/3/6
f 368/3/6 371/3/6 377/3/6
f 377/3/6 371/3/6 378/3/6
f 371/5/6 372/5/6 379/5/6
f 378/3/6 371/3/6 379/3/6
f 379/5/6 372/5/6 380/5/6
f 374/3/6 375/3/6 382/3/6
f 382/3/6 375/3/6 383/3/6
f 378/3/6 379/3/6 386/3/6
f 386/3/6 379/3/6 387/3/6
f 381/5/6 382/5/6 389/5/6
f 383/3/6 384/3/6 390/3/6
f 389/5/6 382/5/6 390/5/6
f 382/3/6 383/3/6 390/3/6
f 387/5/6 388/5/6 391/5/6
f 386/3/6 387/3/6 391/3/6
f 385/3/6 386/3/6 391/3/6
f 391/5/6 388/5/6 392/5/6
f 390/3/6 384/3/6 393/3/6
f 385/3/6 391/3/6 396/3/6
f 393/3/6 394/3/6 397/3/6
f 395/3/6 396/3/6 398/3/6
f 389/4/6 390/4/6 399/4/6
f 397/3/6 398/3/6 400/3/6
f 399/4/6 390/4/6 400/4/6
f 393/3/6 397/3/6 400/3/6
f 390/3/6 393/3/6 400/3/6
f 398/3/6 396/3/6 401/3/6
f 400/3/6 398/3/6 401/3/6
f 391/4/6 392/4/6 401/4/6
f 396/3/6 391/3/6 401/3/6
f 401/4/6 392/4/6 402/4/6
f 399/5/6 400/5/6 403/5/6
f 400/3/6 401/3/6 404/3/6
f 403/5/6 400/5/6 404/5/6
f 404/3/6 401/3/6 405/3/6
f 405/3/6 401/3/6 406/3/6
f 401/5/6 402/5/6 407/5/6
f 406/3/6 401/3/6 407/3/6
f 407/5/6 402/5/6 408/5/6
f 405/3/6 406/3/6 409/3/6
f 409/3/6 406/3/6 410/3/6
f 410/3/6 406/3/6 411/3/6
f 411/3/6 406/3/6 412/3/6
f 412/3/6 406/3/6 413/3/6
f 413/3/6 406/3/6 414/3/6
f 414/3/6 406/3/6 415/3/6
f 415/3/6 406/3/6 416/3/6
f 409/5/6 410/5/6 417/5/6
f 410/4/6 411/4/6 418/4/6
f 417/5/6 410/5/6 418/5/6
f 411/5/6 412/5/6 419/5/6
f 418/4/6 411/4/6 419/4/6
f 419/5/6 412/5/6 420/5/6
f 413/5/6 414/5/6 421/5/6
f 414/4/6 415/4/6 422/4/6
f 421/5/6 414/5/6 422/5/6
f 415/5/6 416/5/6 423/5/6
f 422/4/6 415/4/6 423/4/6
f 423/5/6 416/5/6 424/5/6
f 425/5/6 426/5/6 432/5/6
f 427/5/6 428/5/6 433/5/6
f 433/5/6 428/5/6 434/5/6
f 429/5/6 430/5/6 435/5/6
f 431/5/6 432/5/6 437/5/6
f 432/5/6 426/5/6 438/5/6
f 437/5/6 432/5/6 438/5/6
f 435/5/6 436/5/6 439/5/6
f 429/5/6 435/5/6 439/5/6
f 439/5/6 436/5/6 440/5/6
f 441/1/6 442/1/6 444/1/6
f 444/1/6 442/1/6 445/1/6
f 443/1/6 444/1/6 447/1/6
f 444/2/6 445/2/6 448/2/6
f 447/1/6 444/1/6 448/1/6
f 445/1/6 446/1/6 449/1/6
f 448/2/6 445/2/6 449/2/6
f 449/1/6 446/1/6 450/1/6
f 443/1/6 447/1/6 454/1/6
f 447/2/6 448/2/6 455/2/6
f 448/2/6 449/2/6 455/2/6
f 454/1/6 447/1/6 455/1/6
f 449/2/6 450/2/6 455/2/6
f 455/2/6 450/2/6 456/2/6
f 456/2/6 450/2/6 457/2/6
f 450/1/6 446/1/6 458/1/6
f 457/2/6 450/2/6 458/2/6
f 458/1/6 446/1/6 459/1/6
f 451/5/6 452/5/6 463/5/6
f 463/5/6 452/5/6 464/5/6
f 453/1/6 454/1/6 465/1/6
f 454/2/6 455/2/6 466/2/6
f 465/1/6 454/1/6 466/1/6
f 455/2/6 456/2/6 466/2/6
f 466/2/6 456/2/6 467/2/6
f 456/1/6 457/1/6 468/1/6
f 467/2/6 456/2/6 468/2/6
f 457/2/6 458/2/6 469/2/6
f 468/1/6 457/1/6 469/1/6
f 458/2/6 459/2/6 469/2/6
f 469/2/6 459/2/6 470/2/6
f 459/1/6 460/1/6 471/1/6
f 470/2/6 459/2/6 471/2/6
f 471/1/6 460/1/6 472/1/6
f 461/5/6 462/5/6 473/5/6
f 473/5/6 462/5/6 474/5/6
f 466/1/6 467/1/6 475/1/6
f 467/2/6 468/2/6 475/2/6
f 468/2/6 469/2/6 475/2/6
f 469/2/6 470/2/6 475/2/6
f 475/2/6 470/2/6 476/2/6
f 476/2/6 470/2/6 477/2/6
f 470/1/6 471/1/6 478/1/6
f 477/2/6 470/2/6 478/2/6
f 466/1/6 475/1/6 479/1/6
f 475/1/6 476/1/6 479/1/6
f 476/2/6 477/2/6 480/2/6
f 479/1/6 476/1/6 480/1/6
f 477/1/6 478/1/6 481/1/6
f 480/2/6 477/2/6 481/2/6
f 478/1/6 471/1/6 482/1/6
f 481/1/6 478/1/6 482/1/6
f 480/1/6 481/1/6 483/1/6
f 483/1/6 481/1/6 484/1/6
f 485/5/6 486/5/6 489/5/6
f 489/5/6 486/5/6 490/5/6
f 487/5/6 488/5/6 493/5/6
f 493/5/6 488/5/6 494/5/6
f 490/5/6 486/5/6 495/5/6
f 495/5/6 486/5/6 496/5/6
f 491/5/6 492/5/6 497/5/6
f 497/5/6 492/5/6 498/5/6
f 487/5/6 493/5/6 499/5/6
f 499/5/6 493/5/6 500/5/6
